<?xml version="1.0" encoding="UTF-8" standalone="no"?>
<!DOCTYPE svg PUBLIC "-//W3C//DTD SVG 1.1//EN" "http://www.w3.org/Graphics/SVG/1.1/DTD/svg11.dtd">
<svg width="576" height="1024" viewBox="0 0 576 1024" version="1.1" xmlns="http://www.w3.org/2000/svg">
    <g>
        <path id="arm" d="M244.186,897.329C242.44,896.166 243.71,895.982 248.503,896.705C252.469,897.303 256.758,896.945 258.814,895.845C260.749,894.81 262.333,894.651 262.333,895.493C262.333,899.021 248.785,900.391 244.186,897.329ZM260.694,881.293C260.711,879.224 270.155,874.521 283.498,869.937C290.458,867.546 296.524,865.132 296.978,864.574C298.519,862.68 308.525,857.931 308.514,859.099C308.495,861.271 284.796,874.273 280.805,874.301C279.265,874.313 274.774,876.168 270.825,878.426C263.419,882.66 260.676,883.436 260.694,881.293ZM250.246,868.145C249.766,867.369 251.571,865.76 254.258,864.571C263.541,860.462 276.8,845.168 284.201,830.035C290.502,817.15 291.203,814.504 291.203,803.6C291.203,792.117 290.944,791.276 286.254,787.524C281.25,783.521 283.758,781.748 288.887,785.662C296.44,791.426 298.949,804.819 294.48,815.516C293.107,818.802 292.37,821.491 292.844,821.491C293.317,821.491 294.892,818.521 296.344,814.892C297.797,811.263 299.646,808.293 300.455,808.293C302.496,808.293 302.302,809.476 299.566,813.713C296.777,818.032 289.537,843.743 287.98,854.859C286.978,862.014 284.741,865.895 282.761,863.915C282.321,863.476 284.119,854.493 286.756,843.953C289.392,833.414 291.332,824.79 291.066,824.79C290.8,824.79 287.953,830.173 284.739,836.751C278.96,848.582 262.506,867.683 258.095,867.683C256.945,867.683 254.905,868.105 253.561,868.62C252.218,869.136 250.726,868.922 250.246,868.145ZM288.728,863.559C289.858,862.198 291.524,861.084 292.432,861.084C293.352,861.084 293.173,862.178 292.028,863.559C290.898,864.92 289.232,866.033 288.324,866.033C287.404,866.033 287.583,864.939 288.728,863.559ZM306.207,849.322C310.312,844.733 321.516,837.644 323.578,838.331C325.158,838.858 306.509,852.835 304.225,852.835C303.587,852.835 304.478,851.254 306.207,849.322ZM303.769,978.626C304.808,975.95 305.103,969.69 304.486,963.366C303.674,955.034 302.629,952.007 299.797,949.792C296.886,947.516 296.698,946.935 298.862,946.905C302.456,946.857 303.576,943.484 303.576,932.711C303.576,924.873 303.17,923.773 300.276,923.773C295.756,923.773 296.093,920.828 300.689,920.176C304.151,919.684 304.409,918.808 304.535,907.147L304.669,894.646L298.378,897.686C288.377,902.518 286.841,907.291 287.835,930.45C288.971,956.914 294.839,983.162 299.62,983.162C300.933,983.162 302.8,981.121 303.769,978.626L303.769,978.626ZM327.262,949.756C329.889,945.546 331.967,930.255 330.267,927.642C329.651,926.693 328.032,925.493 326.671,924.975C325.018,924.346 325.429,923.99 327.909,923.903C331.295,923.784 331.621,922.972 331.621,914.648C331.621,907.98 330.954,905.314 329.146,904.749C321.515,902.365 320.975,901.654 326.345,901.059C331.731,900.462 331.787,900.368 331.294,892.73C330.843,885.732 330.381,884.957 326.385,884.495C322.897,884.092 321.143,885.208 318.002,889.829C314.089,895.589 314.063,895.872 316.251,909.311C317.472,916.811 318.506,928.866 318.549,936.1C318.647,952.615 322.1,958.028 327.262,949.756ZM184.072,882.725C186.643,883.214 188.339,883.51 190.725,883.217C195.132,882.676 199.374,879.658 204.847,874.184C213.501,865.53 215.859,859.623 213.086,853.539C211.04,849.048 211.529,848.688 215.938,851.442C220.283,854.156 230.025,846.378 235.288,835.993C239.362,827.952 242.911,826.489 241.446,833.453C241.017,835.494 243.121,833.266 246.123,828.502C251.352,820.203 255.366,816.685 252.709,822.728C246.404,837.071 243.892,841.504 241.562,842.398C239.396,843.229 239.803,843.86 243.58,845.529C247.995,847.479 248.056,847.627 244.49,847.752C242.389,847.826 239.223,847.112 237.454,846.165C231.618,843.042 231.56,849.091 237.369,855.085C243.854,861.776 244.042,864.03 237.741,859.544C232.976,856.151 232.951,856.15 233.816,859.457C234.294,861.288 235.339,863.189 236.137,863.682C236.934,864.175 237.587,865.739 237.587,867.157C237.587,869.263 237.133,869.359 235.113,867.683C232.956,865.893 232.643,866.982 232.678,876.142C232.701,881.924 233.485,889.979 234.421,894.043C235.357,898.107 236.39,909.242 236.716,918.789C237.463,940.65 245.647,984.808 248.953,984.81C253.338,984.81 255.629,979.177 255.656,968.315C255.686,956.5 254.851,954.255 249.96,953.009C246.819,952.208 246.838,952.111 250.372,950.976C253.541,949.958 254.084,948.624 254.084,941.862C254.084,930.541 253.211,929.12 246.575,929.647C242.961,929.933 240.887,929.366 240.887,928.091C240.887,926.783 242.828,926.312 246.466,926.736C253.359,927.541 254.68,925.581 253.189,916.759C252.409,912.142 250.322,908.271 246.868,905.033L241.711,900.199L247.485,901.306C250.661,901.914 254.618,902.63 256.278,902.898C261.173,903.686 261.933,906.628 263.117,929.367C263.736,941.262 265.737,958.046 267.563,966.665C269.39,975.285 271.271,984.379 271.745,986.874C272.728,992.056 278.086,993.204 279.447,988.524L279.447,988.524C281.484,981.524 282.204,971.845 281.227,964.603C280.203,957.012 279.996,956.767 274.603,956.767C270.182,956.767 269.243,956.224 270.046,954.134C270.764,952.261 272.365,951.762 275.59,952.407C279.414,953.172 280.244,952.687 280.889,949.313C281.31,947.113 281.295,941.58 280.857,937.017C280.068,928.811 279.999,928.722 274.358,928.722C270.527,928.722 268.884,928.046 269.351,926.66C269.732,925.526 271.93,924.825 274.235,925.102C280.545,925.861 281.835,918 277.771,903.564C277.318,901.957 275.362,900.666 273.357,900.652C271.377,900.638 268.643,899.907 267.282,899.027C264.389,897.158 264.176,897.23 274.391,896.616C280.488,896.249 282.128,896.652 281.474,898.355C280.186,901.712 284.008,903.202 286.204,900.199C288.553,896.986 301.23,892.026 306.875,892.111C309.146,892.146 313.071,890.208 315.608,887.799C318.143,885.393 323.34,881.924 327.156,880.09C333.862,876.868 334.112,876.467 334.592,868.148C335.059,860.049 334.831,859.475 330.742,858.449C328.352,857.849 322.722,857.793 318.232,858.325C308.375,859.492 308.92,857.258 319.118,854.69C324.245,853.399 327.814,853.352 330.922,854.533C333.373,855.465 335.831,855.773 336.386,855.219C336.941,854.664 337.363,843.274 337.323,829.909C337.267,810.823 336.629,803.976 334.35,798.007C330.58,788.137 328.965,786.547 317.616,785.211C315.162,784.922 311.886,785.334 308.425,785.144C307.338,785.154 309.579,782.01 310.446,781.886C315.489,781.522 318.615,782.115 322.135,782.106C326.445,782.096 329.971,782.787 329.971,783.642C329.971,787.803 333.038,784.478 334.018,779.255C334.631,775.986 334.871,773.05 334.551,772.73C334.231,772.41 331.028,773.196 327.433,774.476C319.689,777.234 313.474,777.601 313.474,775.299C313.474,774.392 314.933,773.649 316.716,773.649C320.6,773.649 335.154,768.936 337.179,767.022C339.756,764.587 341.066,756.564 341.763,753.837C342.451,751.144 343.9,746.306 344.642,743.599C345.251,741.378 347.308,733.464 350.661,723.667C354.015,713.87 356.219,707.79 356.992,705.38C358.54,700.549 362.703,688.578 366.331,680.352C368.653,675.086 372.989,664.071 382.347,642.498C406.286,587.312 410.537,569.008 410.53,517.12C410.527,488.66 410.021,480.037 408.191,477.172C405.651,473.195 405.043,466.804 407.206,466.804C409.236,466.804 413.996,444.635 415.175,429.685C415.748,422.427 415.842,416.859 415.384,417.312C414.926,417.766 412.583,423.68 410.177,430.455C407.771,437.23 404.972,443.54 403.956,444.477C401.751,446.513 401.774,446.416 409.819,420.334C413.084,409.746 415.756,399.526 415.756,397.623C415.756,395.72 417.597,384.908 419.848,373.597C428.958,327.812 430.925,288.488 425.368,263.253C423.489,254.723 422.424,253.019 416.605,249.231C407.745,243.461 393.111,243.204 383.871,248.656C376.876,252.783 376.163,252.984 376.163,250.826C376.163,248.086 386.741,242.754 394.427,241.62C403.904,240.222 414.015,242.859 425.101,249.62C434.87,255.578 440.169,262.79 437.308,266.236C436.153,267.628 435.255,281.324 434.851,303.691C434.402,328.563 433.419,342.354 431.515,350.499C426.606,371.503 422.632,398.027 420.887,421.437C419.94,434.139 417.607,451.585 415.703,460.205C412.374,475.276 412.352,476.066 415.147,480.803C418.435,486.378 418.594,491.291 416.75,530.317C415.361,559.713 412.498,577.833 406.717,593.831C404.585,599.729 400.527,611.978 397.699,621.051C392.185,638.744 373.976,676.516 365.92,696.01C363.413,702.075 361.311,711.041 359.464,715.674C357.42,722.025 355.484,729.025 354.946,729.932C354.407,730.839 353.183,733.781 351.83,738.067C351.83,738.067 350.322,742.16 349.224,745.991C348.418,748.799 347.091,753.251 346.435,756.571C345.836,759.605 343.992,767.764 341.498,774.243L336.962,786.022L339.219,792.981C342.643,801.407 343.201,806.276 343.219,828.09C343.232,843.913 342.298,856.757 340.463,866.033C338.795,874.465 337.503,890.239 337.222,905.595C336.917,922.285 336.128,931.344 334.944,931.738C333.64,932.173 333.653,932.97 334.99,934.581C337.661,937.799 332.796,953.643 328.281,956.433C319.13,962.086 313.474,952.465 313.474,931.25C313.474,922.966 312.795,917.174 311.824,917.174C309.813,917.174 309.819,917.07 309.913,947.694C309.955,961.304 309.192,975.594 308.218,979.451C306.58,985.932 306.033,986.462 300.98,986.462C295.147,986.462 290.378,981.801 290.378,976.099C290.378,970.156 287.501,974.973 286.675,982.299C286.213,986.402 284.91,990.873 283.78,992.235C280.952,995.643 273.315,995.342 270.012,991.693L270.012,991.693C268.511,990.034 267.268,987.25 267.25,985.507C267.233,983.764 266.185,978.626 264.923,974.089C263.014,967.228 262.603,966.673 262.478,970.79C262.246,978.423 257.201,986.952 252.14,988.266C246.116,989.829 240.887,985.975 240.887,979.972C240.887,977.413 239.834,970.217 238.547,963.981C237.26,957.745 235.289,948.189 234.168,942.745C231.872,931.595 229.541,904.711 228.275,874.79C227.431,854.854 227.392,854.691 223.83,856.314C221.854,857.215 218.883,861.224 217.229,865.223C210.886,880.56 200.905,887.817 186.854,887.31C177.154,886.96 176.138,883.2 174.907,881.716C173.687,880.245 175.499,876.837 181.473,869.363C186.011,863.685 190.454,856.345 191.346,853.051C192.238,849.757 196.225,843.344 200.207,838.801C204.19,834.258 210.116,825.241 213.378,818.763C216.64,812.286 221.326,805.4 223.79,803.462C223.79,803.462 227.477,800.562 228.27,799.938C229.063,799.314 231.584,797.696 232.33,796.844C233.685,795.297 237.612,791.713 243.339,787.627C249.066,783.54 253.892,780.5 255.204,776.982C255.793,775.402 256.358,768.164 256.858,760.452C257.357,752.739 259.21,741.233 260.977,734.881C268.251,708.729 269.908,694.626 271.614,668.481C272.489,655.061 272.509,652.031 272.674,648.744C272.893,644.369 273.118,634.776 273.233,628.886C273.419,619.301 273.056,599.605 273.056,599.605C274.388,545.896 275.809,530.882 291.21,500.699C295.167,492.945 298.658,487.13 300.113,485.1C304.581,478.864 309.713,469.719 311.494,466.816C313.276,463.914 318.531,455.745 319.53,452.598C320.305,448.316 320.587,429.375 320.587,429.375C321.435,410.723 321.123,404.248 319.002,396.473C317.331,390.346 316.345,379.98 316.316,368.234C316.29,358.026 316.866,354.385 317.229,350.855C317.598,347.254 318.024,342.924 318.423,340.92C318.953,338.257 320.155,331.763 320.749,328.633C321.502,324.656 324.674,314.233 326.453,308.658C327.843,304.303 328.328,300.782 328.857,298.11C330.057,291.715 328.299,283.059 321.239,267.189C313.407,249.582 311.931,234.109 315.134,203.198C316.047,194.387 317.485,184.58 318.329,181.404C319.174,178.229 322.492,165.101 325.704,152.231C329.101,138.615 333.663,124.913 336.614,119.458C339.404,114.302 341.398,111.419 342.596,109.705C343.794,107.991 347.274,103.919 347.274,103.919C351.676,99.418 363.867,87.35 373.598,82.163C373.598,82.163 379.84,78.631 382.948,76.841C386.055,75.051 389.24,73.082 392.242,71.423C396.453,69.094 400.721,67.125 403.43,65.683C405.879,64.38 413.651,60.957 420.899,57.279C429.974,52.674 434.609,51.124 435.783,52.298C437.941,54.456 438.331,54.239 415.756,63.44C405.321,67.693 401.326,69.542 397.687,71.813C393.476,74.441 391.958,75.16 389.126,76.888C385.261,79.247 375.22,85.138 375.22,85.138C365.414,91.223 360.424,96.05 356.31,99.995C352.195,103.94 349.427,106.631 348.274,107.98C347.12,109.328 346.153,110.522 344.27,113.254C337.438,123.162 332.95,139.67 327.26,165.122C315.839,216.201 316.229,241.739 327.698,271.002C332.915,284.314 334.866,293.585 332.278,303.259C330.744,308.993 329.973,313.468 329.104,317.064C327.848,322.264 326.884,328.331 325.692,333.635C324.766,337.76 323.43,343.832 322.94,345.835C321.862,350.236 321.841,356.163 321.414,360.155C321.074,363.34 322.659,393.102 324.79,397.082C327.143,401.48 327.217,427.805 324.915,442.058C323.108,453.242 317.704,463.41 314.143,469.355C310.583,475.299 310.363,475.697 308.408,478.929C306.453,482.162 305.116,484.67 302.413,488.748C295.236,499.571 289.798,514.888 286.349,529.128C280.909,551.591 280.504,555.584 279.625,595.398C279.195,614.86 278.029,627.323 277.917,631.756C277.752,638.309 277.544,645.666 277.138,653.085C276.429,666.011 275.225,695.209 272.563,705.821C270.784,712.913 269.311,721.436 268.848,723.689C268.153,727.076 267.426,729.742 265.88,734.475C264.437,738.896 263.983,747.241 263.983,751.058C263.983,754.876 263.273,760.474 262.405,763.498C261.01,768.365 261.362,771.953 263.88,772.943C270.552,775.565 269.491,775.006 275.33,776.494C278.344,777.231 277.933,779.598 274.326,779.085C269.044,778.222 265.851,776.414 262.982,775.405C259.67,774.242 260.986,777.708 259.703,779.364C258.053,781.492 256.124,782.404 253.79,784.366C251.455,786.328 248.212,789.558 246.297,791.058C244.383,792.557 233.463,800.184 231.695,802.241C229.928,804.298 220.185,813.895 216.841,820.482C213.498,827.069 211.662,828.005 211.074,829.461C210.485,830.917 206.518,836.65 204.716,839.493C202.914,842.335 198.445,847.13 197.43,849.598C195.838,853.472 192.682,861.234 188.883,865.454C186.862,867.699 179.02,877.517 179.2,878.99C179.488,881.356 182.581,882.441 184.072,882.725ZM301.926,764.673C301.926,763.259 302.668,762.101 303.576,762.101C304.483,762.101 305.225,762.8 305.225,763.654C305.225,764.508 304.483,765.665 303.576,766.226C302.668,766.786 301.926,766.088 301.926,764.673ZM306.645,745.046C307.305,742.805 308.688,738.756 308.688,738.756C311.111,731.294 313.527,726.692 313.401,730.839C313.362,732.155 312.348,735.979 311.149,739.337C311.149,739.337 309.513,742.623 308.969,744.735C308.425,746.846 307.591,751.006 307.29,752.133C306.918,753.529 306.339,756.587 305.204,756.314C304.375,756.115 304.958,753.198 305.19,751.494C305.464,749.482 305.985,747.287 306.645,745.046L306.645,745.046ZM338.496,417.512C337.738,411.186 337.328,387.344 338.141,386.841C338.954,386.339 340.723,392.315 340.895,395.037C341.098,398.268 341.177,410.49 341.177,410.49C341.177,410.49 342.162,420.886 343.205,425.308C345.195,433.745 347.317,437.228 349.179,440.419C350.537,442.746 354.757,447.763 358.906,452.377C363.055,456.992 367.152,462.081 368.011,463.685C369.962,467.33 367.582,469.026 364.288,466.338C361.578,464.126 347.34,445.246 344.967,441.061C342.595,436.876 339.255,423.837 338.496,417.512ZM348.804,527.487C348.88,516.341 348.34,503.139 347.604,498.148C345.767,485.706 349.145,489.264 351.592,502.349C353.664,513.434 352.764,543.652 350.288,546.129C349.224,547.193 348.713,540.775 348.804,527.487ZM364.181,530.159C360.845,526.823 375.82,505.789 386.815,498.369C396.171,492.055 396.43,493.22 387.434,501.156C377.27,510.123 374.143,513.914 369.437,522.978C367.1,527.48 364.734,530.712 364.181,530.159ZM396.065,476.497C395.947,473.509 399.896,461.385 402.848,455.668C406.506,448.585 407.206,452.002 403.861,460.617C398.24,475.098 396.175,479.303 396.065,476.497ZM379.673,232.96C386.28,224.541 403.161,204.5 403.646,204.5C406.32,204.5 398.742,214.967 383.632,232.146C379.818,236.482 376.349,237.195 379.673,232.96Z"/>
        <path id="channel" d="M454.836,119.954L454.836,87.427C454.836,87.427 417.027,91.895 398.268,107.226C370.186,130.175 358.486,153.68 353.72,177.936C348.165,206.207 350.567,238.869 353.72,269.153C355.98,290.859 356.548,308.751 356.548,308.751L353.013,341.985C346.631,367.514 343.902,380.344 341.699,411.282C340.154,432.971 337.456,471.386 337.456,471.386C337.456,471.386 322.426,516.756 312.001,556.946C302.704,592.786 297.151,629.778 297.151,629.778L273.817,724.53L278.059,745.036L270.281,773.32L241.29,805.14C241.29,805.14 224.721,820.144 213.713,836.96C206.987,847.235 196.035,863.123 196.035,863.123" style="fill:none;stroke:#ff8956;stroke-width:4px;"/>
        <g id="points" style="fill:#a00;">
            <circle id="p1" cx="454.75" cy="119.75" r="6.75"/>
            <circle id="p2" cx="455" cy="87.5" r="6.75"/>
            <circle id="p3" cx="356.5" cy="307" r="6.75"/>
            <circle id="p4" cx="352.5" cy="342" r="6.75"/>
            <circle id="p5" cx="337.5" cy="471" r="6.75"/>
            <circle id="p6" cx="296.5" cy="631" r="6.75"/>
            <circle id="p7" cx="275" cy="724" r="6.75"/>
            <circle id="p8" cx="276.5" cy="745.5" r="6.75"/>
            <circle id="p9" cx="269" cy="773.5" r="6.75"/>
            <circle id="p10" cx="239" cy="806.5" r="6.75"/>
            <circle id="p11" cx="196.5" cy="863" r="6.75"/>
        </g>
        <g id="callout-lines" style="fill:none;stroke:#555;stroke-width:1px;">
            <path d="M222.198,49.95L451.301,83.891"/>
            <path d="M206.642,93.791L451.301,119.246"/>
            <path d="M196.742,281.881L356.548,308.751"/>
            <path d="M175.529,365.32L346.649,344.106"/>
            <path d="M182.6,522.297L331.092,472.8"/>
            <path d="M202.399,659.476L290.08,632.606"/>
            <path d="M278.767,721.701L401.803,690.589"/>
            <path d="M186.843,771.199L233.512,802.312"/>
            <path d="M154.316,901.307L195.328,870.194"/>
            <path d="M377.762,795.241L278.767,776.856"/>
            <path d="M377.762,749.986L285.838,745.743"/>
        </g>
        <g id="text-labels" style="font-family:ArialMT,Arial,sans-serif;font-size:32px;fill:#555;">
            <text text-anchor="end" x="143.749" y="924.949">P11</text>
            <text text-anchor="end" x="180.785" y="766.022">P10</text>
            <text text-anchor="start" x="390.192" y="811.562">P9</text>
            <text text-anchor="start" x="389.848" y="758.511">P8</text>
            <text text-anchor="start" x="413.699" y="697.449">P7</text>
            <text text-anchor="end" x="189.025" y="670.676">P6</text>
            <text text-anchor="end" x="169.416" y="536.859">P5</text>
            <text text-anchor="end" x="160.741" y="379.251">P4</text>
            <text text-anchor="end" x="179.756" y="287.578">P3</text>
            <text text-anchor="end" x="212.671" y="55.647">P2</text>
            <text text-anchor="end" x="197.982" y="102.974">P1</text>
        </g>
    </g>
</svg>
